<svg xmlns="http://www.w3.org/2000/svg" viewBox="0 0 1159.19 297.2"><defs><style>.cls-1{fill:#272d36;}</style></defs><g id="Layer_2" data-name="Layer 2"><g id="Layer_1-2" data-name="Layer 1"><path class="cls-1" d="M409.36,5.78V159.41q0,31.34,3.88,49.92,4.45,20.13,12.39,32.5a109.75,109.75,0,0,0,46.28,40.44q30.19,14.33,67.58,14.32,37.17,0,67.38-14.32a109.81,109.81,0,0,0,46.28-40.44q8.52-12.37,12.78-32.89,3.87-18.57,3.87-49.53V5.78H552c0,8.73,0,17.38.2,25.88.23,10.32,1.34,19.86,10,25.52.37.23.72.48,1.07.74a11.49,11.49,0,0,0,1.73,1,57.55,57.55,0,0,1,32.19,51.66v1.34a137.58,137.58,0,0,1-22.78,76.34q-34.77,52.18-69.54,0A137.58,137.58,0,0,1,482,111.93v-1.34A57.54,57.54,0,0,1,514.7,58.71a14.08,14.08,0,0,0,1.8-1.05l.07,0c8.65-5.82,9.39-15.77,9.39-26.2q0-12.63-.35-25.63Z"/><path class="cls-1" d="M284.23,289.65,271.85,177.43q-.59-6.57-1.16-13.16t-1.16-13q-1.54-16.26-1.94-25.74-2.13,12.78-4.83,25.74-2.33,10.63-7.94,29.41l-32.5,108.93H161.76L129.25,180.72a277.89,277.89,0,0,1-7.93-29.41q-3.67-17-4.84-25.74-1.55,18.59-1.94,26.13-.77,8.31-2.32,25.73L99.84,289.65H0L48.37,6.38H153.44l20.12,70.05q.39,1.93,2.9,9.87,13,46.43,15.67,72.94h1.75a387.89,387.89,0,0,1,7-38.31q3.67-17.61,12.38-45.66L234.31,6.38H339.19l44.88,283.27Z"/><path class="cls-1" d="M696.37,265.47l32.5-79.33q23,15.66,39.28,22.25,16.83,7.16,31.73,7.16,10.83,0,16.64-3.87,5.81-4.26,5.81-10.84,0-11.61-30-18.19-6.39-1.16-15.1-3.09-31.72-7.94-48.75-27.48-16.65-19.54-16.65-49.14,0-45.09,32.9-74.5Q777.44,0,830.26,0a177.71,177.71,0,0,1,48,6.38,207.76,207.76,0,0,1,47.59,19.35l-31,74.11Q879.4,88.62,865.67,83.2q-16.26-5.61-29-5.61Q826,77.59,820,81.27q-5.61,3.67-5.61,9.86,0,12.2,42.57,20.9a79.2,79.2,0,0,0,10.26,2.52q29.21,6.38,45.85,26.89,17,19.94,17,49.15,0,47.21-34.05,76.81a111.17,111.17,0,0,1-39.28,22.45q-22.26,7.35-48.95,7.35a205.21,205.21,0,0,1-55.54-7.93A246.45,246.45,0,0,1,696.37,265.47Z"/><path class="cls-1" d="M1000.72,289.65V99.07H944V6.38h215.16V99.07H1102.5V289.65Z"/></g></g></svg>